<?xml version="1.0" standalone="no"?>
<!DOCTYPE svg PUBLIC "-//W3C//DTD SVG 20010904//EN"
 "http://www.w3.org/TR/2001/REC-SVG-20010904/DTD/svg10.dtd">
<svg version="1.0" xmlns="http://www.w3.org/2000/svg"
 width="2048.000000pt" height="2048.000000pt" viewBox="0 0 2048.000000 2048.000000"
 preserveAspectRatio="xMidYMid meet">
<metadata>
Created by potrace 1.11, written by Peter Selinger 2001-2013
</metadata>
<g transform="translate(0.000000,2048.000000) scale(0.100000,-0.100000)"
fill="#000000" stroke="none">
<path d="M0 10240 l0 -7680 10240 0 10240 0 0 7680 0 7680 -10240 0 -10240 0
0 -7680z m12010 5514 c0 -8 -5 -12 -10 -9 -6 4 -8 11 -5 16 9 14 15 11 15 -7z
m-80 -54 c0 -5 -8 -10 -17 -10 -15 0 -16 2 -3 10 19 12 20 12 20 0z m228 -15
c1 -1 4 -16 6 -34 l4 -32 -23 21 -23 22 -16 -29 c-9 -17 -15 -22 -16 -12 0 9
-3 30 -6 47 l-6 31 38 -6 c22 -3 40 -7 42 -8z m-78 -45 c0 -5 -2 -10 -4 -10
-3 0 -8 5 -11 10 -3 6 -1 10 4 10 6 0 11 -4 11 -10z m-502 -367 c-2 -15 3 -18
30 -15 17 1 32 -2 32 -8 0 -5 5 -10 11 -10 6 0 8 9 3 22 -6 21 -5 22 11 8 14
-11 19 -12 22 -2 3 6 9 12 15 12 6 0 8 -6 5 -14 -3 -8 1 -20 10 -28 14 -11 15
-10 9 10 -6 19 0 26 17 21 1 0 14 4 30 10 15 6 27 7 27 2 0 -11 49 -33 60 -26
4 3 13 -1 19 -8 13 -16 81 -21 81 -7 0 6 7 10 16 10 8 0 12 -4 9 -10 -4 -6 5
-10 19 -10 16 0 26 -6 26 -15 0 -8 7 -15 15 -15 8 0 15 -4 15 -10 0 -5 7 -10
15 -10 8 0 15 -9 15 -20 0 -14 7 -20 23 -22 12 0 27 -2 32 -3 6 -2 16 -3 23
-4 6 0 12 -8 12 -16 0 -20 68 -53 78 -39 12 18 42 25 42 10 0 -26 30 -27 40
-1 13 33 39 32 80 -5 36 -32 45 -36 55 -20 3 6 10 10 15 10 11 0 53 -87 46
-98 -8 -14 8 -30 37 -37 21 -6 27 -4 27 9 0 9 5 16 10 16 19 0 10 -52 -12 -71
-19 -16 -21 -20 -8 -28 12 -8 12 -13 1 -35 -11 -20 -11 -28 -2 -40 15 -18 6
-23 -38 -24 -18 0 -39 -6 -44 -11 -14 -14 -57 -14 -57 0 0 8 -4 8 -14 0 -11
-10 -17 -8 -25 6 -9 17 -10 17 -17 0 -9 -25 -42 -41 -57 -28 -8 6 -18 6 -26 1
-8 -5 -21 -4 -32 3 -13 8 -23 7 -43 -6 -26 -17 -26 -17 -26 12 0 16 -6 31 -15
34 -17 7 -31 -11 -26 -36 2 -18 2 -18 -16 0 -10 10 -15 20 -11 21 4 2 8 14 8
28 0 17 -4 22 -15 18 -11 -4 -15 1 -15 17 0 13 -7 33 -15 43 -8 11 -15 30 -15
42 0 26 -17 41 -32 26 -11 -11 -76 1 -118 23 -15 8 -37 11 -48 8 -14 -3 -22
-1 -22 7 0 7 -8 9 -20 5 -11 -4 -20 -2 -20 4 0 6 -11 13 -24 17 -14 3 -27 12
-30 20 -3 8 -15 14 -27 14 -12 0 -23 8 -26 20 -3 11 -13 21 -22 21 -38 4 -48
6 -79 18 -21 9 -31 18 -28 27 6 17 -6 18 -21 3 -18 -18 -29 -3 -25 34 3 29 9
36 34 41 18 3 27 10 23 17 -4 6 -15 9 -25 6 -14 -4 -19 3 -23 27 -2 17 1 34 7
38 16 11 17 10 14 -9z m-368 -868 c0 -25 -23 -35 -35 -15 -10 16 2 40 20 40 9
0 15 -9 15 -25z m-193 -8 c-3 -7 -1 -33 3 -58 5 -24 7 -45 5 -47 -8 -8 -66 31
-84 57 l-21 30 22 15 c28 20 82 22 75 3z m127 7 c20 -8 11 -24 -15 -24 -19 0
-25 11 -12 23 8 8 8 8 27 1z m302 -129 c4 -22 2 -41 -6 -50 -12 -15 -81 -21
-93 -9 -3 4 7 26 24 50 38 55 65 58 75 9z m774 -115 c0 -5 -6 -10 -14 -10 -24
0 -30 -21 -8 -27 25 -6 35 -57 18 -93 -8 -18 -19 -25 -41 -25 -24 0 -30 -4
-28 -20 1 -18 0 -18 -18 4 -10 13 -19 34 -19 48 0 22 -3 24 -32 18 -30 -5 -31
-4 -15 8 9 8 17 28 17 45 0 33 14 42 73 47 22 2 41 6 45 9 9 9 22 7 22 -4z
m-2522 -32 c17 -17 16 -78 -2 -78 -7 0 -28 -3 -46 -7 -33 -6 -33 -6 -26 27 11
57 47 85 74 58z m3367 -68 c-3 -5 -14 -10 -23 -10 -15 0 -15 2 -2 10 20 13 33
13 25 0z m65 0 c0 -5 -7 -10 -15 -10 -8 0 -15 5 -15 10 0 6 7 10 15 10 8 0 15
-4 15 -10z m-210 -20 c-8 -5 -24 -9 -35 -9 -16 1 -16 2 5 9 35 11 48 11 30 0z
m-2285 -40 c-3 -5 -10 -10 -16 -10 -5 0 -9 5 -9 10 0 6 7 10 16 10 8 0 12 -4
9 -10z m841 -31 c4 -7 0 -16 -9 -20 -12 -7 -14 -16 -6 -42 7 -26 6 -34 -8 -45
-34 -25 -53 -33 -53 -22 0 14 -31 46 -49 52 -17 5 -23 50 -7 60 6 4 26 5 44 2
19 -4 32 -2 32 4 0 9 15 16 42 21 4 0 10 -4 14 -10z m54 -9 c0 -5 -4 -10 -10
-10 -5 0 -10 5 -10 10 0 6 5 10 10 10 6 0 10 -4 10 -10z m570 0 c0 -5 -2 -10
-4 -10 -3 0 -8 5 -11 10 -3 6 -1 10 4 10 6 0 11 -4 11 -10z m907 -67 c-1 -43
2 -88 6 -100 12 -34 -8 -30 -102 19 -63 33 -81 47 -81 64 0 34 97 90 162 93
16 1 17 -8 15 -76z m151 27 c-3 -16 -89 -31 -110 -19 -20 13 0 39 30 39 16 0
35 7 43 16 12 14 14 14 26 -2 8 -10 12 -25 11 -34z m-2431 -20 c1 -11 -4 -20
-13 -20 -27 0 -15 -30 14 -31 19 -1 21 -3 8 -6 -15 -4 -16 -7 -5 -14 12 -8 12
-10 0 -18 -10 -7 -8 -12 10 -25 33 -22 62 -21 55 2 -5 16 -2 18 24 14 33 -5
42 -22 11 -22 -25 0 -35 -26 -13 -35 9 -3 18 -1 20 4 6 17 22 13 22 -5 0 -9 9
-18 20 -21 10 -3 22 -14 25 -24 4 -12 16 -19 31 -19 17 0 23 -4 18 -12 -4 -6
-3 -8 4 -4 7 4 8 17 2 36 -11 37 -3 40 10 4 11 -29 43 -30 48 -1 2 12 -3 17
-18 17 -12 0 -18 5 -15 10 4 7 13 6 27 -1 16 -9 23 -8 29 2 6 9 6 0 2 -20 l-6
-35 23 22 c26 24 36 27 45 12 12 -19 38 -11 32 10 -5 18 0 20 39 20 45 0 53
-7 32 -28 -9 -9 -9 -12 1 -12 8 0 11 -6 7 -16 -5 -12 -2 -15 11 -9 37 15 53
17 53 6 0 -6 -8 -11 -19 -11 -11 0 -21 -9 -24 -21 -3 -12 -10 -18 -16 -14 -6
3 -27 1 -46 -6 -28 -10 -39 -10 -59 0 -28 15 -111 6 -86 -9 8 -5 18 -6 22 -4
4 3 18 -2 30 -10 12 -9 31 -16 41 -16 17 0 18 -2 6 -16 -12 -14 -14 -14 -26 2
-9 13 -16 14 -26 6 -7 -6 -23 -8 -36 -5 -31 8 -99 -16 -106 -39 -4 -10 -11
-18 -16 -18 -5 0 -9 -9 -9 -20 0 -26 -36 -46 -56 -30 -11 10 -15 9 -20 -5 -4
-10 -1 -20 6 -25 9 -6 7 -10 -9 -15 -12 -4 -35 -20 -52 -36 -36 -35 -39 -36
-39 -4 0 25 -13 31 -44 19 -20 -8 -21 -24 -1 -24 8 0 15 -3 15 -6 0 -11 -29
-34 -43 -34 -8 0 -20 -7 -27 -15 -15 -17 -30 -20 -30 -4 0 14 26 39 42 40 9 0
10 2 1 5 -7 3 -21 0 -32 -6 -21 -11 -27 -4 -22 24 1 6 -1 21 -4 34 -4 18 -9
22 -17 14 -8 -8 -16 -4 -29 13 -11 13 -19 28 -19 34 0 6 -11 11 -25 11 -14 0
-25 -4 -25 -10 0 -5 -7 -7 -16 -3 -12 4 -14 14 -10 36 4 18 1 36 -6 45 -10 12
-10 16 0 19 17 6 15 33 -5 55 -15 17 -15 18 5 18 11 0 22 -6 25 -12 3 -9 9 -7
19 6 13 17 15 17 21 2 7 -18 33 -22 39 -6 2 6 15 4 32 -5 33 -18 42 -13 52 30
5 25 4 28 -7 18 -24 -23 -42 -15 -19 9 24 26 26 38 5 38 -8 0 -15 -4 -15 -10
0 -5 -4 -10 -9 -10 -6 0 -9 12 -8 27 2 22 -3 29 -20 31 -36 5 -27 22 10 20 30
-3 32 -1 31 30 -1 22 3 32 12 32 8 0 24 9 36 20 12 11 30 20 40 20 10 0 18 7
18 15 0 23 16 18 17 -5z m-1197 0 c0 -5 -4 -10 -10 -10 -5 0 -10 5 -10 10 0 6
5 10 10 10 6 0 10 -4 10 -10z m2027 -48 c-34 -4 -48 5 -27 18 8 5 22 4 34 -3
20 -11 20 -12 -7 -15z m-1761 -128 c-3 -9 -6 -38 -6 -65 0 -46 -1 -49 -25 -47
-22 2 -25 7 -25 40 0 25 5 41 15 44 8 3 17 14 20 25 4 10 11 19 17 19 5 0 7
-7 4 -16z m-318 -51 c1 -34 -1 -44 -8 -33 -12 18 -13 80 -2 80 4 0 9 -21 10
-47z m2565 -198 c-5 -15 15 -20 59 -17 10 1 22 -7 28 -18 6 -11 15 -20 21 -20
6 0 17 -6 25 -14 7 -8 25 -24 40 -35 27 -22 42 -95 22 -107 -7 -5 -9 -1 -5 9
4 11 1 17 -8 17 -8 0 -15 -5 -15 -10 0 -7 -37 -10 -105 -8 -58 2 -105 0 -105
-4 0 -5 -4 -8 -10 -8 -5 0 -10 18 -10 41 0 32 -3 40 -15 36 -8 -4 -17 -2 -19
2 -3 4 -28 11 -56 14 -52 6 -86 -4 -103 -30 -4 -7 -15 -13 -23 -13 -23 0 -64
31 -58 44 3 6 -3 1 -14 -11 -16 -18 -27 -22 -51 -17 -17 4 -31 9 -31 13 0 3
-4 12 -9 20 -7 10 -13 11 -31 1 -15 -8 -20 -8 -16 -1 4 6 0 14 -8 17 -23 9
-19 23 8 30 14 3 32 17 41 30 8 13 23 24 33 24 10 0 23 5 30 12 7 7 15 8 24 1
14 -11 158 -10 176 1 8 4 10 2 6 -7 -3 -8 0 -18 6 -22 7 -4 14 1 17 13 6 24
44 32 86 18 22 -6 33 -5 45 7 18 19 34 13 25 -8z m-1243 -125 c0 -5 -4 -10
-10 -10 -5 0 -10 5 -10 10 0 6 5 10 10 10 6 0 10 -4 10 -10z m-981 -166 c2 -2
-7 -4 -22 -4 -14 0 -29 -4 -32 -10 -3 -5 -16 -10 -28 -10 -18 0 -19 2 -7 10
11 7 11 10 2 10 -7 0 -10 4 -7 10 5 8 84 4 94 -6z m1626 6 c3 -6 -1 -7 -9 -4
-18 7 -21 14 -7 14 6 0 13 -4 16 -10z m325 -384 l35 -16 -31 6 c-17 2 -42 0
-57 -5 -24 -9 -25 -14 -21 -56 2 -25 1 -46 -3 -46 -15 -3 -58 -7 -88 -8 -36
-2 -176 28 -189 40 -6 5 1 18 16 32 25 23 62 36 118 40 14 1 30 6 37 10 6 4
14 3 18 -3 3 -5 24 -10 45 -10 31 0 38 3 34 15 -4 8 -1 22 6 30 11 14 15 14
29 1 9 -8 32 -21 51 -30z m130 -56 c0 -5 -7 -10 -16 -10 -8 0 -12 5 -9 10 3 6
10 10 16 10 5 0 9 -4 9 -10z m-34 -60 c3 0 15 7 28 15 21 14 24 14 30 0 8 -21
-12 -58 -27 -52 -7 2 -20 -3 -30 -11 -13 -11 -20 -13 -25 -5 -4 6 -18 13 -32
14 -36 6 -31 28 10 48 27 13 36 14 38 4 2 -7 6 -13 8 -13z m-778 -111 c38 1
69 -2 78 -10 10 -9 21 -9 41 0 25 10 86 14 163 11 14 0 42 2 63 6 29 5 49 0
91 -20 29 -14 63 -26 76 -26 42 0 152 -40 213 -77 26 -17 42 -21 55 -15 17 9
29 8 67 -8 71 -29 105 -46 143 -71 24 -16 48 -29 53 -29 6 0 29 -11 52 -25 47
-28 92 -87 83 -110 -3 -8 -1 -15 4 -15 6 0 10 7 10 15 0 31 29 27 64 -9 41
-41 46 -83 10 -96 -52 -20 -113 -17 -225 11 -63 17 -157 39 -209 49 -86 18
-152 39 -235 75 -16 7 -48 16 -69 19 -73 12 -159 36 -198 57 -10 5 -25 9 -33
9 -9 0 -26 6 -38 14 -12 8 -40 17 -62 21 -37 6 -81 31 -114 63 -8 7 -38 24
-67 37 -29 13 -58 33 -64 46 -7 12 -24 32 -38 44 -27 23 -23 52 7 39 9 -4 44
-6 79 -5z m259 -298 c10 -13 15 -14 32 -3 18 11 24 9 43 -13 17 -19 29 -24 46
-20 13 3 30 1 37 -5 20 -17 120 -38 150 -32 14 2 25 1 24 -4 -6 -25 16 -63 41
-74 18 -8 27 -17 23 -26 -9 -25 13 -15 25 11 10 21 19 25 52 25 40 0 49 -7 30
-26 -7 -7 -4 -10 12 -10 18 1 23 -4 22 -24 -1 -30 35 -63 53 -48 7 5 22 8 35
6 27 -4 37 -42 14 -51 -9 -4 -16 -1 -16 5 0 7 -5 7 -14 -2 -8 -6 -12 -18 -9
-26 8 -22 -11 -16 -37 11 -28 30 -40 32 -33 5 4 -16 0 -20 -23 -21 -16 0 -50
-2 -76 -4 -41 -2 -48 0 -48 16 0 20 -11 25 -24 12 -14 -14 -110 -11 -131 3
-10 8 -32 14 -47 14 -15 0 -30 5 -33 10 -3 6 -21 10 -39 10 -20 0 -43 9 -58
23 -14 12 -42 36 -62 54 -20 18 -36 37 -36 42 0 5 -7 11 -15 15 -9 3 -15 18
-15 35 0 16 6 31 15 35 8 3 15 10 15 17 0 6 -7 9 -15 5 -8 -3 -15 -2 -16 2 0
4 -2 16 -4 26 -2 11 -2 23 0 26 7 12 70 -3 82 -19z m-107 11 c0 -13 -12 -22
-22 -16 -10 6 -1 24 13 24 5 0 9 -4 9 -8z m-7 -57 c-3 -9 -8 -14 -10 -11 -3 3
-2 9 2 15 9 16 15 13 8 -4z"/>
<path d="M12001 15204 c0 -11 3 -14 6 -6 3 7 2 16 -1 19 -3 4 -6 -2 -5 -13z"/>
<path d="M12106 14922 c-8 -13 11 -35 23 -28 6 4 11 11 11 16 0 11 -28 21 -34
12z"/>
<path d="M12095 14119 c-4 -6 -4 -13 -1 -16 8 -8 36 5 36 17 0 13 -27 13 -35
-1z"/>
<path d="M10850 13663 c0 -13 5 -23 10 -23 13 0 13 11 0 30 -8 12 -10 11 -10
-7z"/>
<path d="M10785 13640 c3 -5 8 -10 11 -10 2 0 4 5 4 10 0 6 -5 10 -11 10 -5 0
-7 -4 -4 -10z"/>
<path d="M10918 13633 c7 -3 16 -2 19 1 4 3 -2 6 -13 5 -11 0 -14 -3 -6 -6z"/>
<path d="M10482 13598 c6 -18 28 -21 28 -4 0 9 -7 16 -16 16 -9 0 -14 -5 -12
-12z"/>
<path d="M11293 12424 c-8 -22 36 -67 53 -53 19 15 -2 69 -27 69 -11 0 -22 -7
-26 -16z"/>
<path d="M11499 12369 c-20 -7 -26 -15 -22 -29 3 -11 7 -20 10 -20 13 0 53 35
53 46 0 16 -5 16 -41 3z"/>
<path d="M12302 12149 c2 -7 10 -15 17 -17 8 -3 12 1 9 9 -2 7 -10 15 -17 17
-8 3 -12 -1 -9 -9z"/>
</g>
</svg>
